
        <svg xmlns="http://www.w3.org/2000/svg" xmlns:xlink="http://www.w3.org/1999/xlink" version="1.1" width="3211.2676056338028" height="971.8309859154929" viewBox="0 0 3211.2676056338028 971.8309859154929">
			
			<g transform="scale(10.56338028169014) translate(10, 10)">
				<defs id="SvgjsDefs1619"/><g id="SvgjsG1620" featureKey="symbolFeature-0" transform="matrix(0.7426508069038391,0,0,0.7426508069038391,-5.117606619308026,-0.8332497733019365)" fill="#000"><g xmlns="http://www.w3.org/2000/svg"><path d="M64.008,72.381c4.002-3.149,12.23-11.582,15.089-21.179c-6.511-8.01-33.912-42.187-40.238-50.08   C38.212,8.613,31.63,24.377,20.21,29.646c-5.247,2.56-10.477,4.156-12.467,4.721l39.077,47.32   C51.235,80.263,59.958,75.56,64.008,72.381z"/><g><g><path d="M90.405,75.352c-6.5,3.781-13.381,7.281-20.674,9.929c-8.632,3.134-19.05,6.681-22.386,7.664v5.127     l43.046-15.479L90.405,75.352z"/><polygon points="6.891,35.865 6.891,50.088 45.703,97.945 45.736,82.902    "/></g><path d="M88.717,70.42c-5.018,3.936-11.386,7.921-18.278,11.363c-6.521,3.266-20.879,7.668-23.093,8.339v1.144    c3.686-1.09,13.036-3.898,21.237-7.013c9.104-3.457,22.12-11.628,22.12-11.628L88.717,70.42z"/></g><path d="M80.877,50.835l-0.114,0.403c-2.851,10.142-11.25,18.858-15.762,22.409   c-4.225,3.319-13.009,8.054-17.655,9.561v2.168c6.53-2.034,15.656-6.36,20.721-9.922c8.699-6.128,17.195-14.63,22.419-22.404   l0.047,0.036C84.648,46.442,51.938,9.001,49.818,6.309c-0.719,1.357-1.368,2.265-2.422,2.887   c10.832,13.508,28.598,35.647,33.217,41.314L80.877,50.835z"/><path d="M87.321,59.925c0,0-11.588,12.1-18.328,16.846c-5.696,4.008-14.5,7.942-21.647,10.168v1.498   c0.692-0.212,1.838-0.566,3.268-1.021c5.266-1.677,14.41-4.722,19.106-7.072c9.305-4.648,17.623-10.274,22.834-15.386   c0.054-0.053,0.106-0.106,0.161-0.16L87.321,59.925z"/></g></g><g id="SvgjsG1621" featureKey="nameFeature-0" transform="matrix(1.080894112586975,0,0,1.080894112586975,84,-1.8089381991491678)" fill="#000"><path d="M0 40 l0 -30 l14.72 0 l0 2.32 l-12.64 0 l0 11.4 l12.52 0 l0 1.84 l-12.52 0 l0 12.12 l12.92 0 l0 2.32 l-15 0 z M34.964 40 l-6.72 -14.72 l-6.68 14.72 l-2.76 0 l7.28 -15 l-7.28 -15 l2.76 0 l6.68 14.72 l6.72 -14.72 l2.72 0 l-7.28 15 l7.28 15 l-2.72 0 z M41.808 40 l0 -30 l14.72 0 l0 2.32 l-12.64 0 l0 11.4 l12.52 0 l0 1.84 l-12.52 0 l0 12.12 l12.92 0 l0 2.32 l-15 0 z M80.572 40 l0 -25.44 l-7.24 17.32 l-2.24 -0.04 l-7.08 -17.32 l0 25.48 l-1.96 0 l0 -30 l2.08 0 l8.12 19.52 l8.16 -19.52 l2.12 0 l0 30 l-1.96 0 z M95.57600000000001 28.72 l-4.32 0 l0 11.28 l-2.32 0 l0 -30 l7.24 0 c2.64 0 4.7132 0.80668 6.22 2.42 s2.26 3.9533 2.26 7.02 c0 1.36 -0.22 2.6067 -0.66 3.74 s-1.06 2.1133 -1.86 2.94 s-1.7533 1.4667 -2.86 1.92 s-2.34 0.68 -3.7 0.68 z M95.376 12.04 l-4.12 0.000039062 l0 14.48 l3.72 0 c1.36 0 2.5067 -0.19332 3.44 -0.58 s1.6866 -0.90668 2.26 -1.56 s0.98664 -1.4133 1.24 -2.28 s0.38 -1.78 0.38 -2.74 c0 -0.98668 -0.09332 -1.9267 -0.28 -2.82 s-0.53336 -1.6733 -1.04 -2.34 s-1.2134 -1.1934 -2.12 -1.58 s-2.0667 -0.58 -3.48 -0.58 z M109.78 40 l0 -30 l2.16 0 l0 27.84 l10.2 0 l0 2.16 l-12.36 0 z M142.50400000000002 40 l-2.2 -8.84 l-9.76 0 l-2.2 8.84 l-2 0 l8.28 -30 l1.72 0 l8.24 30 l-2.08 0 z M135.544 11.879999999999999 l-4.52 17.36 l8.76 0 z M163.78799999999998 40 l-6.6 -12.44 l-6.12 0 l0 12.44 l-1.96 0 l0 -30 l6.8 0 c1.5733 0 2.92 0.23332 4.04 0.7 s2.04 1.1 2.76 1.9 s1.2533 1.7267 1.6 2.78 s0.52 2.1533 0.52 3.3 c0 1.9467 -0.5 3.7 -1.5 5.26 s-2.3133 2.7 -3.94 3.42 l7.04 12.64 l-2.64 0 z M155.628 11.84 l-4.56 -0.000039062 l0 13.68 l4.84 0 c1.36 0 2.48 -0.20668 3.36 -0.62 s1.5667 -0.94664 2.06 -1.6 s0.84 -1.4 1.04 -2.24 s0.3 -1.7 0.3 -2.58 c0 -0.93332 -0.16 -1.8 -0.48 -2.6 s-0.78 -1.5 -1.38 -2.1 s-1.3333 -1.0733 -2.2 -1.42 s-1.86 -0.52 -2.98 -0.52 z M177.79199999999997 26.28 l0 13.72 l-2.16 0 l0 -13.72 l-7.24 -16.28 l2.48 0 l5.8 13.88 l5.88 -13.88 l2.48 0 z"/></g><g id="SvgjsG1622" featureKey="sloganFeature-0" transform="matrix(0.8337892889976501,0,0,0.8337892889976501,84.06670347743258,46.94778432082427)" fill="#000"><path d="M7.22 16.96 c-0.09334 0.41334 -0.23 0.80334 -0.41 1.17 s-0.41666 0.69 -0.71 0.97 s-0.65 0.5 -1.07 0.66 s-0.91 0.24 -1.47 0.24 l-3.64 0 l0 -15 l3.5 0 c1.0133 0 1.8633 0.23666 2.55 0.71 s1.13 1.27 1.33 2.39 c0.04 0.21334 0.07334 0.54334 0.1 0.99 s0.04666 0.96 0.06 1.54 s0.02 1.19 0.02 1.83 s-0.01 1.2533 -0.03 1.84 s-0.05 1.1167 -0.09 1.59 s-0.08666 0.83 -0.14 1.07 z M3.24 6.02 l-2.32 0.000019531 l0 12.9 l2.6 0 c0.36 0 0.68 -0.06334 0.96 -0.19 s0.53 -0.29332 0.75 -0.49998 s0.40334 -0.43666 0.55 -0.69 s0.26666 -0.5 0.36 -0.74 c0.06666 -0.17334 0.12332 -0.48668 0.16998 -0.94002 s0.08 -0.97 0.1 -1.55 s0.03 -1.1967 0.03 -1.85 s-0.01 -1.2667 -0.03 -1.84 s-0.05 -1.08 -0.09 -1.52 s-0.08666 -0.74666 -0.14 -0.92 c-0.08 -0.24 -0.18666 -0.49 -0.32 -0.75 s-0.31 -0.49334 -0.53 -0.7 s-0.5 -0.37666 -0.84 -0.51 s-0.75666 -0.2 -1.25 -0.2 z M14.2475 20.18 c-2.52 0 -3.78 -1.32 -3.78 -3.96 l0 -7.4 c0 -1.3333 0.31666 -2.3266 0.95 -2.98 s1.6567 -0.98 3.07 -0.98 c1.2933 0 2.25 0.33 2.87 0.99 s0.93 1.6367 0.93 2.93 l0 7.44 c0 0.66666 -0.07 1.2467 -0.21 1.74 s-0.37 0.90668 -0.69 1.24 s-0.73666 0.58 -1.25 0.74 s-1.1433 0.24 -1.89 0.24 z M17.2275 8.76 c0 -0.33334 -0.04664 -0.67338 -0.13998 -1.02 s-0.24668 -0.66332 -0.46002 -0.94998 s-0.49668 -0.52 -0.85002 -0.7 s-0.79 -0.27 -1.31 -0.27 c-0.57334 0 -1.05 0.08 -1.43 0.24 s-0.68 0.38334 -0.9 0.67 s-0.37666 0.62332 -0.47 1.01 s-0.14 0.80666 -0.14 1.26 l0 7.1 c0 0.34666 0.04 0.7 0.12 1.06 s0.22334 0.69 0.43 0.99 s0.48666 0.54666 0.84 0.74 s0.79668 0.29 1.33 0.29 c0.57334 0 1.05 -0.07666 1.43 -0.23 s0.68334 -0.36334 0.91 -0.63 s0.39 -0.58332 0.49 -0.94998 s0.15 -0.76332 0.15 -1.19 l0 -7.42 z M27.975 16.22 c-0.01334 0.66666 -0.076582 1.25 -0.18992 1.75 s-0.30668 0.91334 -0.58002 1.24 s-0.63334 0.57 -1.08 0.73 s-1.01 0.24 -1.69 0.24 c-1.1733 0 -2.0266 -0.32666 -2.56 -0.98 s-0.8 -1.6467 -0.8 -2.98 l0 -7.4 c0 -1.3333 0.27 -2.3266 0.81 -2.98 s1.4633 -0.98 2.77 -0.98 c1.1733 0 2.0134 0.32666 2.52 0.98 s0.77332 1.6467 0.79998 2.98 l0.02 0.92 l-0.92 0 l-0.02 -1.16 c0 -0.33334 -0.03334 -0.67 -0.1 -1.01 s-0.18666 -0.65 -0.36 -0.93 s-0.41668 -0.50666 -0.73002 -0.68 s-0.73 -0.26 -1.25 -0.26 c-0.50666 0 -0.93 0.08 -1.27 0.24 s-0.61 0.38 -0.81 0.66 s-0.33666 0.61 -0.41 0.99 s-0.11 0.79 -0.11 1.23 l0.04 7.5 c0 0.92 0.17 1.64 0.51 2.16 s0.96334 0.78 1.87 0.78 c0.52 0 0.95 -0.07 1.29 -0.21 s0.60666 -0.33666 0.8 -0.59 s0.33 -0.56 0.41 -0.92 s0.12 -0.75334 0.12 -1.18 l0.02 -1.3 l0.92 0 z M35.2425 20.18 c-1.2267 0 -2.1768 -0.33336 -2.85 -1 s-1.01 -1.6533 -1.01 -2.96 l0 -11.22 l1.08 0 l0 11.16 c0 0.32 0.04334 0.65666 0.13 1.01 s0.23666 0.67334 0.45 0.96 s0.49668 0.52332 0.85002 0.70998 s0.79 0.28 1.31 0.28 c0.57334 0 1.0467 -0.08334 1.42 -0.25 s0.67334 -0.39666 0.9 -0.69 s0.38666 -0.64 0.48 -1.04 s0.14 -0.82666 0.14 -1.28 l0 -10.86 l1.06 0 l0 11.22 c0 1.3333 -0.32334 2.3266 -0.97 2.98 s-1.6433 0.98 -2.99 0.98 z M51.550000000000004 20 l0 -12.72 l-3.62 8.66 l-1.12 -0.02 l-3.54 -8.66 l0 12.74 l-0.98 0 l0 -15 l1.04 0 l4.06 9.76 l4.08 -9.76 l1.06 0 l0 15 l-0.98 0 z M56.03750000000001 20 l0 -15 l7.36 0 l0 1.16 l-6.32 0 l0 5.7 l6.26 0 l0 0.92 l-6.26 0 l0 6.06 l6.46 0 l0 1.16 l-7.5 0 z M73.165 20 l-5.8 -12.88 l0 12.88 l-1.1 0 l0 -15 l1.18 0 l5.8 12.3 l0.14 -12.3 l1.08 0 l0 15 l-1.3 0 z M81.67250000000001 6.1 l0 13.9 l-1.16 0 l0 -13.9 l-3.26 0 l0 -1.1 l7.68 0 l0 1.1 l-3.26 0 z M99.16750000000002 18.92 c-0.78666 0.72 -1.8534 1.0801 -3.2 1.0801 l-3.42 0 l0 -15 l2.92 0 c0.8 0 1.4667 0.10334 2 0.31 s0.96 0.48666 1.28 0.84 s0.54334 0.76334 0.67 1.23 s0.19 0.95332 0.19 1.46 c0 0.54666 -0.16334 1.0633 -0.49 1.55 s-0.76332 0.94332 -1.31 1.37 c0.21334 0.13334 0.38 0.23668 0.5 0.31002 s0.23334 0.14334 0.34 0.21 c0.17334 0.14666 0.36668 0.32332 0.58002 0.52998 s0.41 0.44666 0.59 0.72 s0.33 0.58334 0.45 0.93 s0.18 0.73332 0.18 1.16 c0 0.74666 -0.11 1.3867 -0.33 1.92 s-0.53666 0.99334 -0.95 1.38 z M95.94750000000002 6 l-2.36 0.000039062 l0 5.4 l2.56 0 c0.36 0 0.69 -0.06666 0.99 -0.2 s0.56 -0.31668 0.78 -0.55002 s0.39334 -0.50334 0.52 -0.81 s0.19 -0.64 0.19 -1 c0 -0.25334 -0.03666 -0.54668 -0.11 -0.88002 s-0.21 -0.64334 -0.41 -0.93 s-0.47334 -0.53 -0.82 -0.73 s-0.79332 -0.3 -1.34 -0.3 z M96.06750000000001 12.4002 l-2.48 0.000039062 l0 6.54 l2.14 0 c0.44 0 0.88 -0.05334 1.32 -0.16 s0.84 -0.28666 1.2 -0.54 s0.65 -0.58668 0.87 -1 s0.33 -0.92668 0.33 -1.54 c0 -0.56 -0.08666 -1.05 -0.26 -1.47 s-0.41334 -0.76334 -0.72 -1.03 s-0.66666 -0.46666 -1.08 -0.6 s-0.85334 -0.2 -1.32 -0.2 z M106.45500000000001 13.14 l0 6.86 l-1.08 0 l0 -6.86 l-3.62 -8.14 l1.24 0 l2.9 6.94 l2.94 -6.94 l1.24 0 z M117.81 20 l0 -15 l7.36 0 l0 1.16 l-6.32 0 l0 5.7 l6.26 0 l0 0.92 l-6.26 0 l0 6.06 l6.46 0 l0 1.16 l-7.5 0 z M135.5975 20 l-3.36 -7.36 l-3.34 7.36 l-1.38 0 l3.64 -7.5 l-3.64 -7.5 l1.38 0 l3.34 7.36 l3.36 -7.36 l1.36 0 l-3.64 7.5 l3.64 7.5 l-1.36 0 z M147.485 20 l-1.1 -4.42 l-4.88 0 l-1.1 4.42 l-1 0 l4.14 -15 l0.86 0 l4.12 15 l-1.04 0 z M144.005 5.9399999999999995 l-2.26 8.68 l4.38 0 z M160.27249999999998 20 l0 -12.72 l-3.62 8.66 l-1.12 -0.02 l-3.54 -8.66 l0 12.74 l-0.98 0 l0 -15 l1.04 0 l4.06 9.76 l4.08 -9.76 l1.06 0 l0 15 l-0.98 0 z M168.07999999999998 14.36 l-2.16 0 l0 5.64 l-1.16 0 l0 -15 l3.62 0 c1.32 0 2.3566 0.40334 3.11 1.21 s1.13 1.9767 1.13 3.51 c0 0.68 -0.11 1.3033 -0.33 1.87 s-0.53 1.0567 -0.93 1.47 s-0.87666 0.73334 -1.43 0.96 s-1.17 0.34 -1.85 0.34 z M167.98 6.02 l-2.06 0.000019531 l0 7.24 l1.86 0 c0.68 0 1.2533 -0.09666 1.72 -0.29 s0.84332 -0.45334 1.13 -0.78 s0.49332 -0.70666 0.61998 -1.14 s0.19 -0.89 0.19 -1.37 c0 -0.49334 -0.04666 -0.96334 -0.14 -1.41 s-0.26668 -0.83666 -0.52002 -1.17 s-0.60668 -0.59668 -1.06 -0.79002 s-1.0333 -0.29 -1.74 -0.29 z M175.48749999999998 20 l0 -15 l1.08 0 l0 13.92 l5.1 0 l0 1.08 l-6.18 0 z M184.315 20 l0 -15 l7.36 0 l0 1.16 l-6.32 0 l0 5.7 l6.26 0 l0 0.92 l-6.26 0 l0 6.06 l6.46 0 l0 1.16 l-7.5 0 z"/></g>
			</g>
		</svg>
	